<mxfile host="Electron" agent="Mozilla/5.0 (Windows NT 10.0; Win64; x64) AppleWebKit/537.36 (KHTML, like Gecko) draw.io/28.0.4 Chrome/138.0.7204.97 Electron/37.2.1 Safari/537.36" version="28.0.4">
  <diagram name="Page-1" id="c_ZkIr_zOMjIXWDe5sSD">
    <mxGraphModel dx="1426" dy="889" grid="1" gridSize="10" guides="1" tooltips="1" connect="1" arrows="1" fold="1" page="1" pageScale="1" pageWidth="850" pageHeight="1100" math="0" shadow="0">
      <root>
        <mxCell id="0" />
        <mxCell id="1" parent="0" />
        <mxCell id="_BnmR6yMb-w9I0ZpGsDe-13" value="" style="rounded=1;whiteSpace=wrap;html=1;" vertex="1" parent="1">
          <mxGeometry x="199.5" y="310" width="120" height="186" as="geometry" />
        </mxCell>
        <mxCell id="_BnmR6yMb-w9I0ZpGsDe-10" value="" style="rounded=1;whiteSpace=wrap;html=1;dashed=1;dashPattern=8 8;fillStyle=auto;strokeColor=#FF0000;arcSize=10;" vertex="1" parent="1">
          <mxGeometry x="70" y="90" width="700" height="170" as="geometry" />
        </mxCell>
        <mxCell id="_BnmR6yMb-w9I0ZpGsDe-47" style="edgeStyle=orthogonalEdgeStyle;rounded=0;orthogonalLoop=1;jettySize=auto;html=1;exitX=0.5;exitY=1;exitDx=0;exitDy=0;entryX=0.5;entryY=0;entryDx=0;entryDy=0;" edge="1" parent="1" source="_BnmR6yMb-w9I0ZpGsDe-8" target="_BnmR6yMb-w9I0ZpGsDe-22">
          <mxGeometry relative="1" as="geometry" />
        </mxCell>
        <mxCell id="_BnmR6yMb-w9I0ZpGsDe-8" value="" style="rounded=1;whiteSpace=wrap;html=1;" vertex="1" parent="1">
          <mxGeometry x="120" y="200" width="600" height="40" as="geometry" />
        </mxCell>
        <mxCell id="_BnmR6yMb-w9I0ZpGsDe-6" value="" style="group" vertex="1" connectable="0" parent="1">
          <mxGeometry x="389" y="107.5" width="121" height="40" as="geometry" />
        </mxCell>
        <mxCell id="_BnmR6yMb-w9I0ZpGsDe-4" value="" style="rounded=1;whiteSpace=wrap;html=1;" vertex="1" parent="_BnmR6yMb-w9I0ZpGsDe-6">
          <mxGeometry x="-55.42" width="171" height="40" as="geometry" />
        </mxCell>
        <mxCell id="_BnmR6yMb-w9I0ZpGsDe-5" value="&lt;font face=&quot;Fira Code&quot;&gt;Client : &lt;font style=&quot;color: rgb(255, 0, 0);&quot;&gt;Next.JS UI&lt;/font&gt;&lt;/font&gt;" style="text;strokeColor=none;align=center;fillColor=none;html=1;verticalAlign=middle;whiteSpace=wrap;rounded=0;" vertex="1" parent="_BnmR6yMb-w9I0ZpGsDe-6">
          <mxGeometry x="-50" y="7.5" width="160.16" height="25" as="geometry" />
        </mxCell>
        <mxCell id="_BnmR6yMb-w9I0ZpGsDe-7" value="" style="group" vertex="1" connectable="0" parent="1">
          <mxGeometry x="453.71" y="200" width="121" height="40" as="geometry" />
        </mxCell>
        <mxCell id="_BnmR6yMb-w9I0ZpGsDe-9" value="&lt;font face=&quot;Fira Code&quot;&gt;API Gateway : &lt;font style=&quot;color: rgb(255, 0, 0);&quot;&gt;Next.JS Server Actions&lt;/font&gt;&lt;/font&gt;" style="text;strokeColor=none;align=center;fillColor=none;html=1;verticalAlign=middle;whiteSpace=wrap;rounded=0;" vertex="1" parent="_BnmR6yMb-w9I0ZpGsDe-7">
          <mxGeometry x="-170" y="7.5" width="280.16" height="25" as="geometry" />
        </mxCell>
        <mxCell id="_BnmR6yMb-w9I0ZpGsDe-11" value="&lt;font style=&quot;color: rgb(0, 0, 0);&quot; face=&quot;Fira Code&quot;&gt;Code&lt;/font&gt;&lt;div&gt;&lt;font style=&quot;color: rgb(255, 0, 0);&quot; face=&quot;Fira Code&quot;&gt;Nest.JS app&lt;/font&gt;&lt;/div&gt;" style="rounded=1;whiteSpace=wrap;html=1;" vertex="1" parent="1">
          <mxGeometry x="211.5" y="350" width="100" height="40" as="geometry" />
        </mxCell>
        <mxCell id="_BnmR6yMb-w9I0ZpGsDe-12" value="&lt;font face=&quot;Fira Code&quot;&gt;DB&lt;/font&gt;&lt;div&gt;&lt;font style=&quot;color: rgb(255, 0, 0);&quot; face=&quot;Fira Code&quot;&gt;MongoDB&lt;/font&gt;&lt;/div&gt;" style="shape=datastore;whiteSpace=wrap;html=1;" vertex="1" parent="1">
          <mxGeometry x="224" y="416" width="71" height="60" as="geometry" />
        </mxCell>
        <mxCell id="_BnmR6yMb-w9I0ZpGsDe-14" value="&lt;font face=&quot;Fira Code&quot;&gt;Users&lt;/font&gt;" style="text;html=1;align=center;verticalAlign=middle;whiteSpace=wrap;rounded=0;" vertex="1" parent="1">
          <mxGeometry x="201.5" y="310" width="120" height="30" as="geometry" />
        </mxCell>
        <mxCell id="_BnmR6yMb-w9I0ZpGsDe-15" value="" style="rounded=1;whiteSpace=wrap;html=1;" vertex="1" parent="1">
          <mxGeometry x="680.5" y="310" width="120" height="186" as="geometry" />
        </mxCell>
        <mxCell id="_BnmR6yMb-w9I0ZpGsDe-16" value="&lt;font style=&quot;color: rgb(0, 0, 0);&quot; face=&quot;Fira Code&quot;&gt;Code&lt;/font&gt;&lt;div&gt;&lt;font style=&quot;color: rgb(255, 0, 0);&quot; face=&quot;Fira Code&quot;&gt;Nest.JS app&lt;/font&gt;&lt;/div&gt;" style="rounded=1;whiteSpace=wrap;html=1;" vertex="1" parent="1">
          <mxGeometry x="690.5" y="350" width="100" height="40" as="geometry" />
        </mxCell>
        <mxCell id="_BnmR6yMb-w9I0ZpGsDe-17" value="&lt;font face=&quot;Fira Code&quot;&gt;DB&lt;/font&gt;&lt;div&gt;&lt;font style=&quot;color: rgb(255, 0, 0);&quot; face=&quot;Fira Code&quot;&gt;Postgres&lt;/font&gt;&lt;/div&gt;" style="shape=datastore;whiteSpace=wrap;html=1;" vertex="1" parent="1">
          <mxGeometry x="705" y="416" width="71" height="60" as="geometry" />
        </mxCell>
        <mxCell id="_BnmR6yMb-w9I0ZpGsDe-18" value="&lt;font face=&quot;Fira Code&quot;&gt;Records&lt;/font&gt;" style="text;html=1;align=center;verticalAlign=middle;whiteSpace=wrap;rounded=0;" vertex="1" parent="1">
          <mxGeometry x="680.5" y="310" width="120" height="30" as="geometry" />
        </mxCell>
        <mxCell id="_BnmR6yMb-w9I0ZpGsDe-19" value="" style="rounded=1;whiteSpace=wrap;html=1;" vertex="1" parent="1">
          <mxGeometry x="360.5" y="310" width="120" height="186" as="geometry" />
        </mxCell>
        <mxCell id="_BnmR6yMb-w9I0ZpGsDe-20" value="&lt;font style=&quot;color: rgb(0, 0, 0);&quot; face=&quot;Fira Code&quot;&gt;Code&lt;/font&gt;&lt;div&gt;&lt;font style=&quot;color: rgb(255, 0, 0);&quot; face=&quot;Fira Code&quot;&gt;Nest.JS app&lt;/font&gt;&lt;/div&gt;" style="rounded=1;whiteSpace=wrap;html=1;" vertex="1" parent="1">
          <mxGeometry x="370.5" y="350" width="100" height="40" as="geometry" />
        </mxCell>
        <mxCell id="_BnmR6yMb-w9I0ZpGsDe-21" value="&lt;font face=&quot;Fira Code&quot;&gt;DB&lt;/font&gt;&lt;div&gt;&lt;font style=&quot;color: rgb(255, 0, 0);&quot; face=&quot;Fira Code&quot;&gt;Postgres&lt;/font&gt;&lt;/div&gt;" style="shape=datastore;whiteSpace=wrap;html=1;" vertex="1" parent="1">
          <mxGeometry x="385" y="416" width="71" height="60" as="geometry" />
        </mxCell>
        <mxCell id="_BnmR6yMb-w9I0ZpGsDe-22" value="&lt;font face=&quot;Fira Code&quot;&gt;Appointments&amp;nbsp;&lt;/font&gt;" style="text;html=1;align=center;verticalAlign=middle;whiteSpace=wrap;rounded=0;" vertex="1" parent="1">
          <mxGeometry x="360.5" y="310" width="120" height="30" as="geometry" />
        </mxCell>
        <mxCell id="_BnmR6yMb-w9I0ZpGsDe-23" value="" style="rounded=1;whiteSpace=wrap;html=1;" vertex="1" parent="1">
          <mxGeometry x="520.5" y="310" width="120" height="186" as="geometry" />
        </mxCell>
        <mxCell id="_BnmR6yMb-w9I0ZpGsDe-24" value="&lt;font style=&quot;color: rgb(0, 0, 0);&quot; face=&quot;Fira Code&quot;&gt;Code&lt;/font&gt;&lt;div&gt;&lt;font style=&quot;color: rgb(255, 0, 0);&quot; face=&quot;Fira Code&quot;&gt;Nest.JS app&lt;/font&gt;&lt;/div&gt;" style="rounded=1;whiteSpace=wrap;html=1;" vertex="1" parent="1">
          <mxGeometry x="530.5" y="350" width="100" height="40" as="geometry" />
        </mxCell>
        <mxCell id="_BnmR6yMb-w9I0ZpGsDe-25" value="&lt;font face=&quot;Fira Code&quot;&gt;DB&lt;/font&gt;&lt;div&gt;&lt;font style=&quot;color: rgb(255, 0, 0);&quot; face=&quot;Fira Code&quot;&gt;Postgres&lt;/font&gt;&lt;/div&gt;" style="shape=datastore;whiteSpace=wrap;html=1;" vertex="1" parent="1">
          <mxGeometry x="545" y="416" width="71" height="60" as="geometry" />
        </mxCell>
        <mxCell id="_BnmR6yMb-w9I0ZpGsDe-26" value="&lt;font face=&quot;Fira Code&quot;&gt;Prescriptions&lt;/font&gt;" style="text;html=1;align=center;verticalAlign=middle;whiteSpace=wrap;rounded=0;" vertex="1" parent="1">
          <mxGeometry x="520.5" y="310" width="120" height="30" as="geometry" />
        </mxCell>
        <mxCell id="_BnmR6yMb-w9I0ZpGsDe-27" value="" style="rounded=1;whiteSpace=wrap;html=1;" vertex="1" parent="1">
          <mxGeometry x="360.5" y="540" width="120" height="90" as="geometry" />
        </mxCell>
        <mxCell id="_BnmR6yMb-w9I0ZpGsDe-28" value="&lt;font style=&quot;color: rgb(0, 0, 0);&quot; face=&quot;Fira Code&quot;&gt;Code&lt;/font&gt;&lt;div&gt;&lt;font style=&quot;color: rgb(255, 0, 0);&quot; face=&quot;Fira Code&quot;&gt;Nest.JS app&lt;/font&gt;&lt;/div&gt;" style="rounded=1;whiteSpace=wrap;html=1;" vertex="1" parent="1">
          <mxGeometry x="370.5" y="580" width="100" height="40" as="geometry" />
        </mxCell>
        <mxCell id="_BnmR6yMb-w9I0ZpGsDe-30" value="&lt;font face=&quot;Fira Code&quot;&gt;Notifications&lt;/font&gt;" style="text;html=1;align=center;verticalAlign=middle;whiteSpace=wrap;rounded=0;" vertex="1" parent="1">
          <mxGeometry x="360.5" y="540" width="120" height="30" as="geometry" />
        </mxCell>
        <mxCell id="_BnmR6yMb-w9I0ZpGsDe-31" value="" style="rounded=1;whiteSpace=wrap;html=1;" vertex="1" parent="1">
          <mxGeometry x="39.5" y="310" width="120" height="90" as="geometry" />
        </mxCell>
        <mxCell id="_BnmR6yMb-w9I0ZpGsDe-32" value="&lt;font style=&quot;color: rgb(0, 0, 0);&quot; face=&quot;Fira Code&quot;&gt;Code&lt;/font&gt;&lt;div&gt;&lt;font style=&quot;color: rgb(255, 0, 0);&quot; face=&quot;Fira Code&quot;&gt;Nest.JS app&lt;/font&gt;&lt;/div&gt;" style="rounded=1;whiteSpace=wrap;html=1;" vertex="1" parent="1">
          <mxGeometry x="49.5" y="350" width="100" height="40" as="geometry" />
        </mxCell>
        <mxCell id="_BnmR6yMb-w9I0ZpGsDe-34" value="&lt;font face=&quot;Fira Code&quot;&gt;Auth&lt;/font&gt;" style="text;html=1;align=center;verticalAlign=middle;whiteSpace=wrap;rounded=0;" vertex="1" parent="1">
          <mxGeometry x="39.5" y="310" width="120" height="30" as="geometry" />
        </mxCell>
        <mxCell id="_BnmR6yMb-w9I0ZpGsDe-35" value="&lt;font style=&quot;color: rgb(255, 0, 0);&quot; face=&quot;Fira Code&quot;&gt;&lt;b&gt;Next.js App&lt;/b&gt;&lt;/font&gt;" style="text;html=1;align=center;verticalAlign=middle;whiteSpace=wrap;rounded=0;" vertex="1" parent="1">
          <mxGeometry x="370" y="60" width="100" height="30" as="geometry" />
        </mxCell>
        <mxCell id="_BnmR6yMb-w9I0ZpGsDe-36" style="edgeStyle=orthogonalEdgeStyle;rounded=0;orthogonalLoop=1;jettySize=auto;html=1;exitX=0.5;exitY=1;exitDx=0;exitDy=0;entryX=0.5;entryY=0;entryDx=0;entryDy=0;" edge="1" parent="1" source="_BnmR6yMb-w9I0ZpGsDe-4" target="_BnmR6yMb-w9I0ZpGsDe-8">
          <mxGeometry relative="1" as="geometry" />
        </mxCell>
        <mxCell id="_BnmR6yMb-w9I0ZpGsDe-44" value="" style="endArrow=classic;html=1;rounded=0;entryX=0.5;entryY=0;entryDx=0;entryDy=0;exitX=0;exitY=0.5;exitDx=0;exitDy=0;" edge="1" parent="1" source="_BnmR6yMb-w9I0ZpGsDe-8" target="_BnmR6yMb-w9I0ZpGsDe-34">
          <mxGeometry width="50" height="50" relative="1" as="geometry">
            <mxPoint x="390" y="480" as="sourcePoint" />
            <mxPoint x="440" y="430" as="targetPoint" />
            <Array as="points">
              <mxPoint x="100" y="220" />
            </Array>
          </mxGeometry>
        </mxCell>
        <mxCell id="_BnmR6yMb-w9I0ZpGsDe-45" value="" style="endArrow=classic;html=1;rounded=0;entryX=0.5;entryY=0;entryDx=0;entryDy=0;exitX=0.236;exitY=0.989;exitDx=0;exitDy=0;exitPerimeter=0;" edge="1" parent="1" source="_BnmR6yMb-w9I0ZpGsDe-8" target="_BnmR6yMb-w9I0ZpGsDe-14">
          <mxGeometry width="50" height="50" relative="1" as="geometry">
            <mxPoint x="390" y="480" as="sourcePoint" />
            <mxPoint x="440" y="430" as="targetPoint" />
          </mxGeometry>
        </mxCell>
        <mxCell id="_BnmR6yMb-w9I0ZpGsDe-46" value="" style="endArrow=classic;html=1;rounded=0;entryX=0.5;entryY=0;entryDx=0;entryDy=0;exitX=1;exitY=0.5;exitDx=0;exitDy=0;" edge="1" parent="1" source="_BnmR6yMb-w9I0ZpGsDe-8" target="_BnmR6yMb-w9I0ZpGsDe-18">
          <mxGeometry width="50" height="50" relative="1" as="geometry">
            <mxPoint x="480" y="220" as="sourcePoint" />
            <mxPoint x="530" y="170" as="targetPoint" />
            <Array as="points">
              <mxPoint x="740" y="220" />
            </Array>
          </mxGeometry>
        </mxCell>
        <mxCell id="_BnmR6yMb-w9I0ZpGsDe-48" value="" style="endArrow=classic;html=1;rounded=0;entryX=0.5;entryY=0;entryDx=0;entryDy=0;exitX=0.766;exitY=0.998;exitDx=0;exitDy=0;exitPerimeter=0;" edge="1" parent="1" source="_BnmR6yMb-w9I0ZpGsDe-8" target="_BnmR6yMb-w9I0ZpGsDe-26">
          <mxGeometry width="50" height="50" relative="1" as="geometry">
            <mxPoint x="580" y="250" as="sourcePoint" />
            <mxPoint x="450" y="190" as="targetPoint" />
          </mxGeometry>
        </mxCell>
        <mxCell id="_BnmR6yMb-w9I0ZpGsDe-49" value="" style="endArrow=classic;html=1;rounded=0;entryX=0;entryY=0.5;entryDx=0;entryDy=0;exitX=0.5;exitY=1;exitDx=0;exitDy=0;" edge="1" parent="1" source="_BnmR6yMb-w9I0ZpGsDe-13" target="_BnmR6yMb-w9I0ZpGsDe-27">
          <mxGeometry width="50" height="50" relative="1" as="geometry">
            <mxPoint x="250" y="520" as="sourcePoint" />
            <mxPoint x="300" y="470" as="targetPoint" />
            <Array as="points">
              <mxPoint x="260" y="585" />
            </Array>
          </mxGeometry>
        </mxCell>
        <mxCell id="_BnmR6yMb-w9I0ZpGsDe-50" value="" style="endArrow=classic;html=1;rounded=0;entryX=1;entryY=0.5;entryDx=0;entryDy=0;exitX=0.5;exitY=1;exitDx=0;exitDy=0;" edge="1" parent="1" source="_BnmR6yMb-w9I0ZpGsDe-23" target="_BnmR6yMb-w9I0ZpGsDe-27">
          <mxGeometry width="50" height="50" relative="1" as="geometry">
            <mxPoint x="250" y="520" as="sourcePoint" />
            <mxPoint x="300" y="470" as="targetPoint" />
            <Array as="points">
              <mxPoint x="580" y="585" />
            </Array>
          </mxGeometry>
        </mxCell>
        <mxCell id="_BnmR6yMb-w9I0ZpGsDe-51" value="" style="endArrow=classic;html=1;rounded=0;entryX=0.5;entryY=0;entryDx=0;entryDy=0;exitX=0.5;exitY=1;exitDx=0;exitDy=0;" edge="1" parent="1" source="_BnmR6yMb-w9I0ZpGsDe-19" target="_BnmR6yMb-w9I0ZpGsDe-30">
          <mxGeometry width="50" height="50" relative="1" as="geometry">
            <mxPoint x="390" y="620" as="sourcePoint" />
            <mxPoint x="440" y="570" as="targetPoint" />
          </mxGeometry>
        </mxCell>
      </root>
    </mxGraphModel>
  </diagram>
</mxfile>
